<svg width="16" height="16" viewBox="0 0 16 16" fill="none" xmlns="http://www.w3.org/2000/svg">
<path d="M10.6663 14V12.6667C10.6663 11.9594 10.3854 11.2811 9.88529 10.781C9.3852 10.281 8.70692 10 7.99967 10H3.99967C3.29243 10 2.61415 10.281 2.11406 10.781C1.61396 11.2811 1.33301 11.9594 1.33301 12.6667V14" stroke="#0A0A0A" stroke-width="1.33333" stroke-linecap="round" stroke-linejoin="round"/>
<path d="M5.99967 7.33333C7.47243 7.33333 8.66634 6.13943 8.66634 4.66667C8.66634 3.19391 7.47243 2 5.99967 2C4.52692 2 3.33301 3.19391 3.33301 4.66667C3.33301 6.13943 4.52692 7.33333 5.99967 7.33333Z" stroke="#0A0A0A" stroke-width="1.33333" stroke-linecap="round" stroke-linejoin="round"/>
<path d="M10.2273 9C10.167 9 10.1092 8.94732 10.0666 8.85355C10.0239 8.75979 10 8.63261 10 8.5C10 8.36739 10.0239 8.24021 10.0666 8.14645C10.1092 8.05268 10.167 8 10.2273 8H14.7727C14.833 8 14.8908 8.05268 14.9334 8.14645C14.9761 8.24021 15 8.36739 15 8.5C15 8.63261 14.9761 8.75979 14.9334 8.85355C14.8908 8.94732 14.833 9 14.7727 9H10.2273Z" fill="black"/>
<path d="M12 6.22727C12 6.167 12.0527 6.10919 12.1464 6.06657C12.2402 6.02394 12.3674 6 12.5 6C12.6326 6 12.7598 6.02394 12.8536 6.06657C12.9473 6.10919 13 6.167 13 6.22727V10.7727C13 10.833 12.9473 10.8908 12.8536 10.9334C12.7598 10.9761 12.6326 11 12.5 11C12.3674 11 12.2402 10.9761 12.1464 10.9334C12.0527 10.8908 12 10.833 12 10.7727V6.22727Z" fill="black"/>
</svg>
