<svg width="14" height="13" viewBox="0 0 14 13" fill="none" xmlns="http://www.w3.org/2000/svg">
<path d="M13.8007 10.2557L8.33505 0.763791C8.19847 0.531244 8.00348 0.338428 7.76942 0.204454C7.53537 0.0704799 7.27036 0 7.00067 0C6.73098 0 6.46597 0.0704799 6.23192 0.204454C5.99786 0.338428 5.80288 0.531244 5.6663 0.763791L0.20067 10.2557C0.0692554 10.4806 0 10.7364 0 10.9969C0 11.2574 0.0692554 11.5132 0.20067 11.7382C0.335502 11.9721 0.530152 12.166 0.764646 12.2999C0.999141 12.4338 1.26504 12.5028 1.53505 12.5H12.4663C12.7361 12.5026 13.0017 12.4334 13.236 12.2996C13.4702 12.1657 13.6647 11.9719 13.7994 11.7382C13.931 11.5134 14.0005 11.2576 14.0007 10.9971C14.0009 10.7366 13.9319 10.4807 13.8007 10.2557ZM12.9338 11.2375C12.8861 11.3188 12.8177 11.386 12.7356 11.4321C12.6534 11.4782 12.5605 11.5017 12.4663 11.5H1.53505C1.44084 11.5017 1.3479 11.4782 1.26575 11.4321C1.1836 11.386 1.11519 11.3188 1.06755 11.2375C1.02439 11.1645 1.00162 11.0812 1.00162 10.9963C1.00162 10.9114 1.02439 10.8281 1.06755 10.755L6.53317 1.26317C6.58178 1.18227 6.6505 1.11534 6.73264 1.06887C6.81478 1.0224 6.90755 0.997975 7.00192 0.997975C7.09629 0.997975 7.18906 1.0224 7.2712 1.06887C7.35334 1.11534 7.42206 1.18227 7.47067 1.26317L12.9363 10.755C12.9791 10.8283 13.0014 10.9118 13.001 10.9966C13.0005 11.0815 12.9773 11.1647 12.9338 11.2375ZM6.50067 7.50004V5.00004C6.50067 4.86743 6.55335 4.74026 6.64712 4.64649C6.74089 4.55272 6.86806 4.50004 7.00067 4.50004C7.13328 4.50004 7.26046 4.55272 7.35422 4.64649C7.44799 4.74026 7.50067 4.86743 7.50067 5.00004V7.50004C7.50067 7.63265 7.44799 7.75983 7.35422 7.85359C7.26046 7.94736 7.13328 8.00004 7.00067 8.00004C6.86806 8.00004 6.74089 7.94736 6.64712 7.85359C6.55335 7.75983 6.50067 7.63265 6.50067 7.50004ZM7.75067 9.75004C7.75067 9.89838 7.70668 10.0434 7.62427 10.1667C7.54186 10.2901 7.42473 10.3862 7.28768 10.443C7.15064 10.4997 6.99984 10.5146 6.85435 10.4856C6.70887 10.4567 6.57523 10.3853 6.47034 10.2804C6.36545 10.1755 6.29402 10.0418 6.26508 9.89636C6.23614 9.75087 6.251 9.60007 6.30776 9.46303C6.36453 9.32598 6.46066 9.20885 6.58399 9.12644C6.70733 9.04403 6.85233 9.00004 7.00067 9.00004C7.19958 9.00004 7.39035 9.07906 7.531 9.21971C7.67165 9.36036 7.75067 9.55113 7.75067 9.75004Z" fill="#CF5050"/>
</svg>
