<svg width="16" height="16" viewBox="0 0 16 16" fill="none" xmlns="http://www.w3.org/2000/svg">
<g clip-path="url(#clip0_188_15142)">
<path d="M5.3335 9.3335C7.54264 9.3335 9.3335 7.54264 9.3335 5.3335C9.3335 3.12436 7.54264 1.3335 5.3335 1.3335C3.12436 1.3335 1.3335 3.12436 1.3335 5.3335C1.3335 7.54264 3.12436 9.3335 5.3335 9.3335Z" stroke="#F0B100" stroke-width="1.33333" stroke-linecap="round" stroke-linejoin="round"/>
<path d="M12.0602 6.91309C12.6904 7.14804 13.2512 7.53811 13.6907 8.04722C14.1302 8.55633 14.4343 9.16805 14.5747 9.8258C14.7152 10.4835 14.6875 11.1661 14.4943 11.8103C14.301 12.4545 13.9485 13.0396 13.4692 13.5115C12.9899 13.9834 12.3994 14.3267 11.7522 14.5099C11.1051 14.6931 10.4222 14.7101 9.76668 14.5594C9.1112 14.4087 8.5043 14.0951 8.00211 13.6478C7.49991 13.2004 7.11864 12.6335 6.89355 11.9998" stroke="#F0B100" stroke-width="1.33333" stroke-linecap="round" stroke-linejoin="round"/>
<path d="M4.6665 4H5.33317V6.66667" stroke="#F0B100" stroke-width="1.33333" stroke-linecap="round" stroke-linejoin="round"/>
<path d="M11.1399 9.25342L11.6066 9.72675L9.72656 11.6068" stroke="#F0B100" stroke-width="1.33333" stroke-linecap="round" stroke-linejoin="round"/>
</g>
<defs>
<clipPath id="clip0_188_15142">
<rect width="16" height="16" fill="white"/>
</clipPath>
</defs>
</svg>
