<svg width="252" height="210" viewBox="0 0 252 210" fill="none" xmlns="http://www.w3.org/2000/svg">
<path d="M57.6523 59.8501L66.8288 53.2222H86.245V115.302L82.4865 118.621L105.157 131.794V33.6779H57.6523V59.8501Z" fill="white"/>
<path d="M126.669 0H48.7383V26.9147L58.3272 20.2961H115.714V135.408L126.669 141.862L137.623 135.408V20.2961H195.01L204.599 26.9147V0H126.669Z" fill="white"/>
<path d="M148.172 131.794L170.843 118.621L167.084 115.302V53.2222H186.509L195.677 59.8501V33.6779H148.172V131.794Z" fill="white"/>
<path d="M8.88309 176.863V154.349H0V149.114H24.1833V154.349H15.3002V176.863H8.88309Z" fill="white"/>
<path d="M41.4886 177.342C39.2976 177.342 37.2625 176.984 35.4015 176.269C33.5405 175.554 31.9271 174.555 30.5612 173.253C29.2044 171.96 28.141 170.439 27.3893 168.697C26.6376 166.955 26.2617 165.048 26.2617 162.986C26.2617 160.923 26.6376 159.025 27.3893 157.274C28.141 155.533 29.2044 154.011 30.5795 152.718C31.9546 151.426 33.568 150.417 35.4198 149.702C37.2716 148.987 39.2793 148.63 41.4427 148.63C43.6062 148.63 45.6505 148.987 47.484 149.702C49.3174 150.417 50.9217 151.417 52.2785 152.718C53.6352 154.011 54.6986 155.523 55.4687 157.256C56.2387 158.989 56.6146 160.895 56.6146 162.986C56.6146 165.076 56.2296 166.955 55.4687 168.715C54.6986 170.475 53.6352 171.988 52.2785 173.271C50.9217 174.555 49.3174 175.554 47.484 176.26C45.6505 176.975 43.6429 177.332 41.4794 177.332L41.4886 177.342ZM41.4519 171.869C42.6895 171.869 43.8354 171.658 44.8805 171.236C45.9255 170.814 46.8423 170.209 47.6306 169.412C48.4282 168.614 49.0424 167.679 49.4733 166.597C49.9133 165.516 50.1241 164.315 50.1241 162.995C50.1241 161.675 49.9041 160.474 49.4733 159.383C49.0332 158.301 48.4282 157.357 47.649 156.568C46.8698 155.78 45.953 155.166 44.8988 154.744C43.8446 154.323 42.6895 154.112 41.4519 154.112C40.2143 154.112 39.0684 154.323 38.0233 154.744C36.9783 155.166 36.0615 155.771 35.264 156.568C34.4664 157.366 33.8522 158.301 33.4214 159.383C32.9813 160.465 32.7705 161.666 32.7705 162.995C32.7705 164.324 32.9905 165.488 33.4214 166.579C33.8522 167.67 34.4664 168.623 35.2457 169.412C36.0249 170.209 36.9416 170.814 37.9958 171.236C39.0501 171.658 40.2051 171.869 41.4427 171.869H41.4519Z" fill="white"/>
<path d="M62.3047 176.863V149.114H74.3138C76.7981 149.114 78.9341 149.517 80.7309 150.324C82.5277 151.131 83.912 152.286 84.8929 153.789C85.8738 155.293 86.3596 157.09 86.3596 159.18C86.3596 161.27 85.8738 163.021 84.8929 164.533C83.912 166.037 82.5277 167.192 80.7309 167.999C78.9341 168.805 76.789 169.209 74.3138 169.209H65.8708L68.7218 166.312V176.854H62.3047V176.863ZM68.7218 167.027L65.8708 163.974H73.9563C75.9364 163.974 77.4215 163.552 78.3933 162.709C79.3741 161.866 79.86 160.683 79.86 159.18C79.86 157.676 79.3741 156.457 78.3933 155.614C77.4124 154.77 75.9364 154.349 73.9563 154.349H65.8708L68.7218 151.296V167.036V167.027Z" fill="white"/>
<path d="M96.7073 176.863V154.349H87.8242V149.114H112.008V154.349H103.124V176.863H96.7073Z" fill="white"/>
<path d="M111.195 176.863L123.562 149.114H129.906L142.309 176.863H135.571L125.423 152.368H127.962L117.777 176.863H111.195ZM117.383 170.914L119.088 166.037H133.362L135.104 170.914H117.383Z" fill="white"/>
<path d="M146.016 176.863V149.114H152.433V171.629H166.349V176.863H146.016Z" fill="white"/>
<path d="M177.12 171.711H192.219V176.863H170.73V149.114H191.696V154.266H177.111V171.711H177.12ZM176.643 160.289H190V165.285H176.643V160.289Z" fill="white"/>
<path d="M198.137 176.863V149.114H203.445L219.817 169.089H217.241V149.114H223.585V176.863H218.314L201.904 156.888H204.48V176.863H198.137Z" fill="white"/>
<path d="M236.7 176.863V154.349H227.816V149.114H252V154.349H243.117V176.863H236.7Z" fill="white"/>
<path d="M53.6029 209.028L64.952 183.956H68.4997L79.8855 209.028H76.1269L65.9879 185.964H67.418L57.279 209.028H53.5938H53.6029ZM58.4341 202.767L59.3966 199.907H73.5051L74.541 202.767H58.4249H58.4341Z" fill="white"/>
<path d="M92.431 209.325C90.4967 209.325 88.7182 209.013 87.0956 208.371C85.473 207.739 84.0612 206.84 82.8695 205.685C81.6777 204.53 80.7427 203.173 80.0734 201.624C79.4042 200.075 79.0742 198.361 79.0742 196.5C79.0742 194.639 79.4042 192.934 80.0734 191.375C80.7427 189.826 81.6777 188.469 82.8878 187.314C84.0979 186.159 85.5097 185.261 87.1323 184.628C88.7549 183.996 90.5425 183.675 92.5043 183.675C94.4661 183.675 96.2995 183.996 97.9496 184.646C99.5998 185.288 100.993 186.26 102.139 187.543L99.9206 189.762C98.8939 188.763 97.7755 188.029 96.5746 187.562C95.3645 187.094 94.0627 186.865 92.651 186.865C91.2392 186.865 89.8916 187.103 88.654 187.58C87.4256 188.057 86.3622 188.726 85.4638 189.588C84.5654 190.449 83.8779 191.467 83.3828 192.649C82.897 193.832 82.6495 195.115 82.6495 196.5C82.6495 197.884 82.897 199.131 83.3828 200.313C83.8687 201.496 84.5654 202.523 85.4638 203.393C86.3622 204.264 87.4164 204.943 88.6357 205.419C89.8549 205.896 91.175 206.134 92.6143 206.134C93.9527 206.134 95.2361 205.924 96.4645 205.511C97.693 205.089 98.8297 204.393 99.8839 203.412L101.928 206.134C100.691 207.189 99.2331 207.977 97.5738 208.518C95.9145 209.059 94.2002 209.325 92.431 209.325ZM98.4813 205.667V196.353H101.919V206.134L98.4813 205.667Z" fill="white"/>
<path d="M110.186 205.921H124.799V209.038H106.602V183.966H124.294V187.083H110.186V205.921ZM109.865 194.783H122.754V197.827H109.865V194.783Z" fill="white"/>
<path d="M128.438 209.028V183.956H131.371L147.955 204.545H146.415V183.956H149.999V209.028H147.065L130.482 188.438H132.022V209.028H128.438Z" fill="white"/>
<path d="M166.559 209.325C164.652 209.325 162.892 209.013 161.279 208.371C159.665 207.739 158.272 206.84 157.089 205.685C155.907 204.53 154.981 203.173 154.312 201.624C153.643 200.075 153.312 198.361 153.312 196.5C153.312 194.639 153.643 192.934 154.312 191.375C154.981 189.826 155.907 188.469 157.108 187.314C158.3 186.159 159.702 185.261 161.316 184.628C162.929 183.996 164.689 183.675 166.596 183.675C168.503 183.675 170.318 184.005 171.95 184.665C173.581 185.325 174.975 186.297 176.121 187.58L173.792 189.835C172.839 188.836 171.766 188.084 170.565 187.598C169.374 187.112 168.09 186.865 166.733 186.865C165.377 186.865 164.02 187.103 162.81 187.58C161.6 188.057 160.555 188.726 159.675 189.588C158.795 190.449 158.107 191.467 157.612 192.649C157.126 193.832 156.879 195.115 156.879 196.5C156.879 197.884 157.126 199.167 157.612 200.35C158.098 201.533 158.785 202.55 159.675 203.412C160.555 204.274 161.6 204.943 162.81 205.419C164.02 205.896 165.322 206.134 166.733 206.134C168.145 206.134 169.374 205.887 170.565 205.401C171.757 204.915 172.83 204.154 173.792 203.128L176.121 205.383C174.975 206.675 173.581 207.656 171.95 208.316C170.318 208.986 168.521 209.316 166.559 209.316V209.325Z" fill="white"/>
<path d="M184.729 209.028V199.43L185.554 201.649L174.773 183.956H178.605L187.663 198.889H185.582L194.676 183.956H198.223L187.479 201.649L188.268 199.43V209.028H184.72H184.729Z" fill="white"/>
</svg>
