<svg width="16" height="16" viewBox="0 0 16 16" fill="none" xmlns="http://www.w3.org/2000/svg">
<path d="M10.6665 1.33325C8.8265 1.33325 7.33317 2.82659 7.33317 4.66659C7.33317 6.50659 8.8265 7.99992 10.6665 7.99992C12.5065 7.99992 13.9998 6.50659 13.9998 4.66659C13.9998 2.82659 12.5065 1.33325 10.6665 1.33325ZM10.6665 6.66659C9.55984 6.66659 8.6665 5.77325 8.6665 4.66659C8.6665 3.55992 9.55984 2.66659 10.6665 2.66659C11.7732 2.66659 12.6665 3.55992 12.6665 4.66659C12.6665 5.77325 11.7732 6.66659 10.6665 6.66659ZM12.6665 10.6666H11.3332C11.3332 9.86659 10.8332 9.14659 10.0865 8.86659L5.97984 7.33325H0.666504V14.6666H4.6665V13.7066L9.33317 14.9999L14.6665 13.3333V12.6666C14.6665 11.5599 13.7732 10.6666 12.6665 10.6666ZM3.33317 13.3333H1.99984V8.66659H3.33317V13.3333ZM9.31317 13.6066L4.6665 12.3333V8.66659H5.73984L9.61984 10.1133C9.8465 10.1999 9.99984 10.4199 9.99984 10.6666C9.99984 10.6666 8.6665 10.6333 8.4665 10.5666L6.87984 10.0399L6.45984 11.3066L8.0465 11.8333C8.3865 11.9466 8.73984 11.9999 9.09984 11.9999H12.6665C12.9265 11.9999 13.1598 12.1599 13.2665 12.3799L9.31317 13.6066Z" fill="#856DAD"/>
</svg>
