<svg width="24" height="24" viewBox="0 0 24 24" fill="none" xmlns="http://www.w3.org/2000/svg">
<g clip-path="url(#clip0_775_8043)">
<path d="M7.19629 16.804V17.2629C7.19866 17.9016 7.45363 18.5134 7.90527 18.9651C8.35693 19.4166 8.96875 19.6717 9.60742 19.6741H14.3926C15.0312 19.6717 15.6431 19.4166 16.0947 18.9651C16.5464 18.5134 16.8013 17.9016 16.8037 17.2629V16.804H22.5V22.0442C22.5 22.104 22.4878 22.1637 22.4648 22.219C22.4419 22.2741 22.4085 22.3242 22.3662 22.3665C22.3238 22.4088 22.2732 22.4422 22.2178 22.4651C22.1626 22.4879 22.1036 22.5003 22.0439 22.5002H1.95605C1.89636 22.5003 1.83741 22.4879 1.78223 22.4651C1.72685 22.4422 1.67618 22.4088 1.63379 22.3665C1.59154 22.3242 1.55809 22.2741 1.53516 22.219C1.51224 22.1637 1.50003 22.104 1.5 22.0442V16.804H7.19629Z" fill="white" stroke="white"/>
<path d="M19.0977 11.0649C19.1784 11.0648 19.2581 11.0862 19.3281 11.1265C19.3982 11.1667 19.4566 11.2245 19.4971 11.2944L19.498 11.2964L22.1299 15.8042H15.8037V17.2612C15.8018 17.6353 15.6522 17.9938 15.3877 18.2583C15.1228 18.523 14.7641 18.6728 14.3896 18.6743H9.6123C9.23764 18.673 8.87829 18.5231 8.61328 18.2583C8.3814 18.0264 8.23727 17.7223 8.2041 17.3989L8.19727 17.2593V15.8042H1.87012L4.50195 11.2964L4.50293 11.2944C4.54302 11.2252 4.6008 11.1677 4.66992 11.1274C4.72184 11.0973 4.77878 11.077 4.83789 11.0688L4.89746 11.0649H19.0977Z" fill="#9F9F9F" stroke="white"/>
<path d="M18.7168 6.26367L18.2402 6.24023C15.9439 6.1308 13.681 6.82579 11.8418 8.20508C10.9945 8.84052 10.2628 9.6039 9.66602 10.46C9.82529 9.86649 10.0326 9.23895 10.3047 8.61328C10.8794 7.2916 11.7309 5.99473 12.9902 5.0293C14.2429 4.06906 15.9285 3.41406 18.2168 3.41406H18.7168V2.04004L22.1973 4.82617L18.7168 7.61133V6.26367Z" fill="white" stroke="white"/>
<path d="M1 16.3039V22.0439C1 22.1696 1.02476 22.294 1.07287 22.41C1.12097 22.5261 1.19148 22.6315 1.28036 22.7203C1.36924 22.8091 1.47474 22.8795 1.59085 22.9275C1.70695 22.9754 1.83137 23.0001 1.957 22.9999H22.043C22.1686 23.0001 22.2931 22.9754 22.4092 22.9275C22.5253 22.8795 22.6308 22.8091 22.7196 22.7203C22.8085 22.6315 22.879 22.5261 22.9271 22.41C22.9752 22.294 23 22.1696 23 22.0439V16.3039M1 16.3039H7.696V17.2609C7.69784 17.7677 7.89998 18.2532 8.25834 18.6116C8.6167 18.97 9.10221 19.1721 9.609 19.1739H14.391C14.8978 19.1721 15.3833 18.97 15.7417 18.6116C16.1 18.2532 16.3022 17.7677 16.304 17.2609V16.3039H23M1 16.3039L4.071 11.0439C4.15493 10.899 4.27532 10.7785 4.42022 10.6945C4.56513 10.6104 4.7295 10.5658 4.897 10.5649H6.739M23 16.3039L19.928 11.0429C19.8439 10.8982 19.7235 10.7779 19.5786 10.694C19.4337 10.6102 19.2694 10.5657 19.102 10.5649H14.39" stroke="white" stroke-linecap="round" stroke-linejoin="round"/>
<path d="M18.2164 8.652V6.74C16.0363 6.6361 13.8882 7.29569 12.1421 8.60518C10.396 9.91466 9.16122 11.7921 8.65039 13.914C8.65039 13.914 8.65039 2.914 18.2164 2.914V1L22.9984 4.826L18.2164 8.652Z" stroke="white" stroke-linecap="round" stroke-linejoin="round"/>
</g>
<defs>
<clipPath id="clip0_775_8043">
<rect width="24" height="24" fill="white"/>
</clipPath>
</defs>
</svg>
