<svg width="24" height="19" viewBox="0 0 24 19" fill="none" xmlns="http://www.w3.org/2000/svg">
<g clip-path="url(#clip0_188_17303)">
<path d="M13.2675 2.00781L12.3825 0.233978C12.2363 -0.0740293 11.7788 -0.0851621 11.6175 0.233978L10.7325 2.00781L8.77125 2.28613C8.4225 2.33808 8.2725 2.76484 8.53125 3.02089L9.95625 4.39394L9.61875 6.32734C9.56625 6.67245 9.92625 6.93964 10.2487 6.78007L12.0075 5.85976L13.755 6.76523C14.0775 6.9248 14.4413 6.65761 14.385 6.31249L14.0475 4.3791L15.4725 3.02089C15.7275 2.76855 15.5813 2.34179 15.2325 2.28613L13.2713 2.00781H13.2675ZM9.6 9.50019C8.93625 9.50019 8.4 10.0309 8.4 10.6877V17.8127C8.4 18.4695 8.93625 19.0002 9.6 19.0002H14.4C15.0638 19.0002 15.6 18.4695 15.6 17.8127V10.6877C15.6 10.0309 15.0638 9.50019 14.4 9.50019H9.6ZM1.2 11.8752C0.53625 11.8752 0 12.4059 0 13.0627V17.8127C0 18.4695 0.53625 19.0002 1.2 19.0002H6C6.66375 19.0002 7.2 18.4695 7.2 17.8127V13.0627C7.2 12.4059 6.66375 11.8752 6 11.8752H1.2ZM16.8 15.4377V17.8127C16.8 18.4695 17.3363 19.0002 18 19.0002H22.8C23.4638 19.0002 24 18.4695 24 17.8127V15.4377C24 14.7809 23.4638 14.2502 22.8 14.2502H18C17.3363 14.2502 16.8 14.7809 16.8 15.4377Z" fill="#101828"/>
</g>
<defs>
<clipPath id="clip0_188_17303">
<rect width="24" height="19" fill="white"/>
</clipPath>
</defs>
</svg>
